SplineFontDB: 3.0
FontName: Xolonium-Dingbats
FullName: Xolonium Dingbats
FamilyName: Xolonium
Weight: Regular
Copyright: Copyright (C) 2011-2013 Severin Meyer
Version: 2.1
ItalicAngle: 0
UnderlinePosition: -75
UnderlineWidth: 70
Ascent: 800
Descent: 200
LayerCount: 2
Layer: 0 0 "Back"  1
Layer: 1 0 "Fore"  0
XUID: [1021 881 1079499186 3173474]
FSType: 0
OS2Version: 3
OS2_WeightWidthSlopeOnly: 0
OS2_UseTypoMetrics: 1
CreationTime: 1377094223
ModificationTime: 1382255875
PfmFamily: 81
TTFWeight: 400
TTFWidth: 5
LineGap: 90
VLineGap: 0
OS2TypoAscent: 0
OS2TypoAOffset: 1
OS2TypoDescent: 0
OS2TypoDOffset: 1
OS2TypoLinegap: 90
OS2WinAscent: 0
OS2WinAOffset: 1
OS2WinDescent: 0
OS2WinDOffset: 1
HheadAscent: 0
HheadAOffset: 1
HheadDescent: 0
HheadDOffset: 1
OS2Vendor: 'PfEd'
MarkAttachClasses: 1
DEI: 91125
LangName: 1033 "" "" "" "" "" "" "" "" "" "" "" "" "" "GNU General Public License, version 2 or any later version, with GPL Font Exception" "http://www.gnu.org/licenses/gpl-2.0" 
Encoding: UnicodeFull
UnicodeInterp: none
NameList: Adobe Glyph List
DisplaySize: -36
AntiAlias: 1
FitToEm: 1
WinInfo: 9550 50 17
BeginPrivate: 6
BlueValues 21 [0 0 480 480 660 660]
OtherBlues 11 [-225 -225]
ForceBold 5 false
BlueFuzz 1 1
BlueShift 1 7
BlueScale 8 0.039625
EndPrivate
BeginChars: 1114112 62

StartChar: u1F604
Encoding: 128516 128516 0
Width: 960
VWidth: -40
Flags: MW
LayerCount: 2
Fore
SplineSet
70 330 m 0
 70 720 70 720 480 720 c 0
 890 720 890 720 890 330 c 0
 890 -60 890 -60 480 -60 c 0
 70 -60 70 -60 70 330 c 0
155 320 m 0
 155 205 270 20 480 20 c 0
 690 20 805 205 805 320 c 0
 805 350 805 375 795 410 c 1
 165 410 l 1
 155 375 155 350 155 320 c 0
220 490 m 1
 260 535 285 550 330 550 c 0
 375 550 400 535 440 490 c 1
 425 560 390 600 330 600 c 0
 270 600 235 560 220 490 c 1
520 490 m 1
 560 535 585 550 630 550 c 0
 675 550 700 535 740 490 c 1
 725 560 690 600 630 600 c 0
 570 600 535 560 520 490 c 1
EndSplineSet
EndChar

StartChar: u1F60E
Encoding: 128526 128526 1
Width: 960
VWidth: -40
Flags: MW
LayerCount: 2
Fore
SplineSet
70 330 m 0
 70 720 70 720 480 720 c 0
 890 720 890 720 890 330 c 0
 890 -60 890 -60 480 -60 c 0
 70 -60 70 -60 70 330 c 0
140 550 m 1
 140 450 180 360 290 360 c 0
 450 360 410 510 480 510 c 0
 550 510 510 360 670 360 c 0
 780 360 820 450 820 550 c 1
 140 550 l 1
280 150 m 1
 320 100 390 70 480 70 c 0
 610 70 750 180 810 280 c 1
 680 180 560 130 420 130 c 0
 350 130 310 140 280 150 c 1
EndSplineSet
EndChar

StartChar: u1F609
Encoding: 128521 128521 2
Width: 960
VWidth: -40
Flags: MW
LayerCount: 2
Fore
SplineSet
70 330 m 0
 70 720 70 720 480 720 c 0
 890 720 890 720 890 330 c 0
 890 -60 890 -60 480 -60 c 0
 70 -60 70 -60 70 330 c 0
150 405 m 1
 190 205 330 75 500 75 c 0
 600 75 690 105 790 235 c 1
 720 175 650 135 560 135 c 0
 390 135 220 225 150 405 c 1
220 430 m 1
 260 475 285 490 330 490 c 0
 375 490 400 475 440 430 c 1
 425 500 390 540 330 540 c 0
 270 540 235 500 220 430 c 1
550 480 m 0
 550 414 581 360 620 360 c 0
 659 360 690 414 690 480 c 0
 690 546 659 600 620 600 c 0
 581 600 550 546 550 480 c 0
EndSplineSet
EndChar

StartChar: u1F615
Encoding: 128533 128533 3
Width: 960
VWidth: -40
Flags: MW
LayerCount: 2
Fore
SplineSet
70 330 m 0
 70 720 70 720 480 720 c 0
 890 720 890 720 890 330 c 0
 890 -60 890 -60 480 -60 c 0
 70 -60 70 -60 70 330 c 0
260 70 m 1
 370 140 510 210 650 210 c 0
 720 210 760 210 790 200 c 1
 750 250 680 270 590 270 c 0
 470 270 320 170 260 70 c 1
270 480 m 0
 270 414 301 360 340 360 c 0
 379 360 410 414 410 480 c 0
 410 546 379 600 340 600 c 0
 301 600 270 546 270 480 c 0
550 480 m 0
 550 425 581 380 620 380 c 0
 659 380 690 425 690 480 c 0
 690 535 659 580 620 580 c 0
 581 580 550 535 550 480 c 0
EndSplineSet
EndChar

StartChar: u1F62E
Encoding: 128558 128558 4
Width: 960
VWidth: -40
Flags: MW
LayerCount: 2
Fore
SplineSet
70 330 m 0
 70 720 70 720 480 720 c 0
 890 720 890 720 890 330 c 0
 890 -60 890 -60 480 -60 c 0
 70 -60 70 -60 70 330 c 0
270 520 m 0
 270 454 301 400 340 400 c 0
 379 400 410 454 410 520 c 0
 410 586 379 640 340 640 c 0
 301 640 270 586 270 520 c 0
285 140 m 0
 285 74 372 20 480 20 c 0
 588 20 675 74 675 140 c 0
 675 206 588 260 480 260 c 0
 372 260 285 206 285 140 c 0
550 520 m 0
 550 454 581 400 620 400 c 0
 659 400 690 454 690 520 c 0
 690 586 659 640 620 640 c 0
 581 640 550 586 550 520 c 0
EndSplineSet
EndChar

StartChar: u1F635
Encoding: 128565 128565 5
Width: 960
VWidth: -40
Flags: MW
LayerCount: 2
Fore
SplineSet
70 330 m 0
 70 720 70 720 480 720 c 0
 890 720 890 720 890 330 c 0
 890 -60 890 -60 480 -60 c 0
 70 -60 70 -60 70 330 c 0
200 160 m 1
 245 185 290 195 335 200 c 1
 296 173 270 135 270 95 c 0
 270 25 315 0 365 0 c 0
 445 0 465 60 465 95 c 0
 465 145 475 185 505 205 c 1
 575 205 675 175 750 145 c 1
 675 215 575 275 430 275 c 0
 320 275 225 215 200 160 c 1
210 385 m 1
 225 370 l 1
 320 445 l 1
 415 370 l 1
 430 385 l 1
 355 480 l 1
 430 575 l 1
 415 590 l 1
 320 515 l 1
 225 590 l 1
 210 575 l 1
 285 480 l 1
 210 385 l 1
350 70 m 1
 350 120 355 180 395 215 c 1
 425 215 l 1
 380 175 355 120 350 70 c 1
530 385 m 1
 545 370 l 1
 640 445 l 1
 735 370 l 1
 750 385 l 1
 675 480 l 1
 750 575 l 1
 735 590 l 1
 640 515 l 1
 545 590 l 1
 530 575 l 1
 605 480 l 1
 530 385 l 1
EndSplineSet
EndChar

StartChar: u1F61E
Encoding: 128542 128542 6
Width: 960
VWidth: -40
Flags: MW
LayerCount: 2
Fore
SplineSet
70 330 m 0
 70 720 70 720 480 720 c 0
 890 720 890 720 890 330 c 0
 890 -60 890 -60 480 -60 c 0
 70 -60 70 -60 70 330 c 0
230 80 m 1
 310 160 360 185 480 185 c 0
 600 185 650 160 730 80 c 1
 680 180 600 260 480 260 c 0
 360 260 280 180 230 80 c 1
270 480 m 0
 270 414 301 360 340 360 c 0
 379 360 410 414 410 480 c 0
 410 546 379 600 340 600 c 0
 301 600 270 546 270 480 c 0
550 480 m 0
 550 414 581 360 620 360 c 0
 659 360 690 414 690 480 c 0
 690 546 659 600 620 600 c 0
 581 600 550 546 550 480 c 0
EndSplineSet
EndChar

StartChar: u1F60A
Encoding: 128522 128522 7
Width: 960
VWidth: -40
Flags: MW
LayerCount: 2
Fore
SplineSet
70 330 m 0
 70 720 70 720 480 720 c 0
 890 720 890 720 890 330 c 0
 890 -60 890 -60 480 -60 c 0
 70 -60 70 -60 70 330 c 0
145 345 m 0
 145 290 275 165 480 165 c 0
 685 165 815 290 815 345 c 0
 815 365 810 375 790 375 c 0
 765 375 720 340 480 340 c 0
 240 340 195 375 170 375 c 0
 150 375 145 365 145 345 c 0
220 490 m 1
 260 535 285 550 330 550 c 0
 375 550 400 535 440 490 c 1
 425 560 390 600 330 600 c 0
 270 600 235 560 220 490 c 1
520 490 m 1
 560 535 585 550 630 550 c 0
 675 550 700 535 740 490 c 1
 725 560 690 600 630 600 c 0
 570 600 535 560 520 490 c 1
EndSplineSet
EndChar

StartChar: uni2605
Encoding: 9733 9733 8
Width: 960
VWidth: 0
Flags: MW
LayerCount: 2
Fore
SplineSet
70 422 m 1
 383 422 l 1
 480 720 l 1
 577 422 l 1
 890 422 l 1
 637 238 l 1
 733 -60 l 1
 480 124 l 1
 227 -60 l 1
 323 238 l 1
 70 422 l 1
EndSplineSet
EndChar

StartChar: uni272A
Encoding: 10026 10026 9
Width: 920
VWidth: 0
Flags: MW
LayerCount: 2
Fore
SplineSet
70 330 m 0
 70 545 245 720 460 720 c 0
 675 720 850 545 850 330 c 0
 850 115 675 -60 460 -60 c 0
 245 -60 70 115 70 330 c 0
108 444 m 1
 326 286 l 1
 243 31 l 1
 460 189 l 1
 677 31 l 1
 594 286 l 1
 812 444 l 1
 543 444 l 1
 460 700 l 1
 377 444 l 1
 108 444 l 1
EndSplineSet
EndChar

StartChar: uni2747
Encoding: 10055 10055 10
Width: 920
VWidth: 0
Flags: MW
LayerCount: 2
Fore
SplineSet
70 272 m 0
 70 318 122 378 205 378 c 0
 247 378 293 354 326 354 c 0
 353 354 369 377 369 395 c 0
 369 516 91 498 91 632 c 0
 91 672 130 701 178 701 c 0
 348 701 285 480 421 480 c 0
 436 480 446 487 446 501 c 0
 446 531 417 549 417 582 c 0
 417 608 436 624 453 624 c 0
 468 624 481 613 481 588 c 0
 481 567 473 556 473 539 c 0
 473 514 491 498 514 498 c 0
 619 498 557 720 765 720 c 0
 807 720 832 702 832 679 c 0
 832 564 586 552 586 461 c 0
 586 445 595 432 615 432 c 0
 655 432 703 474 777 474 c 0
 827 474 850 446 850 416 c 0
 850 381 818 343 757 343 c 0
 714 343 696 355 668 355 c 0
 642 355 618 326 618 296 c 0
 618 263 649 227 693 227 c 0
 762 227 798 173 798 134 c 0
 798 97 772 64 732 64 c 0
 630 64 597 234 501 234 c 0
 471 234 439 221 439 182 c 0
 439 157 448 153 448 94 c 0
 448 -12 397 -60 353 -60 c 0
 320 -60 290 -32 290 20 c 0
 290 129 373 169 373 246 c 0
 373 268 365 284 346 284 c 0
 311 284 227 219 136 219 c 0
 90 219 70 243 70 272 c 0
513 21 m 0
 513 55 537 83 567 83 c 0
 597 83 621 55 621 21 c 0
 621 -13 597 -41 567 -41 c 0
 537 -41 513 -13 513 21 c 0
EndSplineSet
EndChar

StartChar: uni2748
Encoding: 10056 10056 11
Width: 990
VWidth: 0
Flags: MW
LayerCount: 2
Fore
SplineSet
70 595 m 0
 70 625 108 654 153 654 c 0
 336 654 216 461 375 461 c 0
 438 461 465 481 495 481 c 0
 544 481 560 452 577 452 c 0
 607 452 591 720 701 720 c 0
 736 720 766 685 766 638 c 0
 766 503 597 481 597 428 c 0
 597 390 633 373 633 346 c 0
 633 313 627 298 627 277 c 0
 627 211 891 178 891 47 c 0
 891 9 858 -17 814 -17 c 0
 638 -17 691 215 563 215 c 0
 509 215 499 173 439 173 c 0
 373 173 316 210 316 270 c 0
 316 296 327 316 327 356 c 0
 327 506 70 463 70 595 c 0
86 347 m 0
 86 368 103 385 123 385 c 0
 143 385 183 372 183 351 c 0
 183 330 143 309 123 309 c 0
 103 309 86 326 86 347 c 0
94 57 m 0
 94 109 143 152 180 152 c 0
 212 152 231 125 231 95 c 0
 231 55 195 0 145 0 c 0
 112 0 94 27 94 57 c 0
142 236 m 0
 142 263 169 292 200 292 c 0
 224 292 244 276 244 250 c 0
 244 223 218 195 186 195 c 0
 164 195 142 212 142 236 c 0
247 -10 m 0
 247 30 329 135 363 135 c 0
 398 135 412 96 412 60 c 0
 412 29 394 -60 331 -60 c 0
 294 -60 247 -36 247 -10 c 0
396 573 m 0
 396 605 420 631 450 631 c 0
 480 631 505 605 505 573 c 0
 505 541 480 515 450 515 c 0
 420 515 396 541 396 573 c 0
442 3 m 0
 442 24 459 42 479 42 c 0
 499 42 516 24 516 3 c 0
 516 -18 499 -35 479 -35 c 0
 459 -35 442 -18 442 3 c 0
754 304 m 0
 754 330 788 351 830 351 c 0
 872 351 905 330 905 304 c 0
 905 278 872 257 830 257 c 0
 788 257 754 278 754 304 c 0
781 544 m 0
 781 580 826 620 872 620 c 0
 898 620 920 607 920 579 c 0
 920 544 875 503 830 503 c 0
 805 503 781 517 781 544 c 0
EndSplineSet
EndChar

StartChar: uni2764
Encoding: 10084 10084 12
Width: 920
VWidth: 0
Flags: MW
HStem: 0 660
VStem: 70 780<333.026 519.304>
LayerCount: 2
Fore
SplineSet
70 460 m 0
 70 570 160 660 270 660 c 0
 370 660 440 590 460 520 c 1
 480 590 550 660 650 660 c 0
 760 660 850 570 850 460 c 0
 850 290 780 210 460 0 c 1
 140 210 70 290 70 460 c 0
EndSplineSet
EndChar

StartChar: uni26A0
Encoding: 9888 9888 13
Width: 960
VWidth: 0
Flags: W
HStem: 0 80<178 782> 120 70<440 520>
VStem: 440 80<120 190 230 460>
LayerCount: 2
Fore
SplineSet
70 40 m 0
 70 45 70 50 75 60 c 2
 445 700 l 2
 450 710 465 720 480 720 c 0
 495 720 510 710 515 700 c 2
 885 60 l 2
 890 50 890 45 890 40 c 0
 890 25 880 0 850 0 c 2
 110 0 l 2
 80 0 70 25 70 40 c 0
178 80 m 1
 782 80 l 1
 480 600 l 1
 178 80 l 1
440 120 m 1
 440 190 l 1
 520 190 l 1
 520 120 l 1
 440 120 l 1
440 230 m 1
 440 460 l 1
 520 460 l 1
 520 230 l 1
 440 230 l 1
EndSplineSet
EndChar

StartChar: uni2623
Encoding: 9763 9763 14
Width: 960
VWidth: 0
Flags: MW
LayerCount: 2
Fore
SplineSet
70 200 m 0
 70 300 135 392 231 428 c 1
 229 441 228 454 228 468 c 0
 228 595 322 701 445 712 c 1
 365 690 305 620 305 535 c 0
 305 442 378 365 470 360 c 1
 470 334 l 1
 447 329 430 309 430 285 c 0
 430 279 431 274 433 269 c 1
 409 255 l 1
 378 302 324 334 263 334 c 0
 154 334 86 240 86 158 c 0
 86 145 86 125 92 101 c 1
 80 126 70 165 70 200 c 0
127 40 m 1
 163 5 210 -16 263 -16 c 0
 360 -16 438 61 438 158 c 0
 438 187 431 214 419 238 c 1
 443 252 l 1
 452 242 465 235 480 235 c 0
 495 235 508 242 517 252 c 1
 541 238 l 1
 529 214 522 187 522 158 c 0
 522 61 600 -16 697 -16 c 0
 750 -16 797 5 833 40 c 1
 792 -20 720 -60 639 -60 c 0
 579 -60 523 -39 480 -4 c 1
 437 -39 381 -60 321 -60 c 0
 240 -60 168 -20 127 40 c 1
253 285 m 0
 253 295 254 305 255 314 c 1
 276 314 294 312 313 306 c 1
 312 299 312 292 312 285 c 0
 312 215 354 155 415 130 c 1
 411 110 404 91 393 75 c 1
 311 109 253 190 253 285 c 0
342 465 m 1
 380 494 428 512 480 512 c 0
 532 512 580 494 618 465 c 1
 609 447 597 431 582 418 c 1
 554 440 518 453 480 453 c 0
 442 453 406 440 378 418 c 1
 363 431 351 447 342 465 c 1
490 334 m 1
 490 360 l 1
 582 365 655 442 655 535 c 0
 655 620 595 690 515 712 c 1
 638 701 732 595 732 468 c 0
 732 454 731 441 729 428 c 1
 825 392 890 300 890 200 c 0
 890 165 880 126 868 101 c 1
 874 125 874 145 874 158 c 0
 874 240 806 334 697 334 c 0
 636 334 582 302 551 255 c 1
 527 269 l 1
 529 274 530 279 530 285 c 0
 530 309 513 329 490 334 c 1
545 130 m 1
 606 155 648 215 648 285 c 0
 648 292 648 299 647 306 c 1
 666 312 684 314 705 314 c 1
 706 305 707 295 707 285 c 0
 707 190 649 109 567 75 c 1
 556 91 549 110 545 130 c 1
EndSplineSet
EndChar

StartChar: uni269B
Encoding: 9883 9883 15
Width: 880
VWidth: 0
Flags: MW
LayerCount: 2
Fore
SplineSet
90 181 m 0
 90 225 115 277 159 330 c 1
 115 383 90 435 90 479 c 0
 90 550 155 580 231 580 c 0
 253 580 276 578 299 574 c 1
 327 651 375 720 440 720 c 0
 497 720 547 663 580 574 c 1
 603 578 625 580 646 580 c 0
 731 580 789 544 789 477 c 0
 789 430 760 376 721 330 c 1
 760 284 789 230 789 183 c 0
 789 116 731 80 646 80 c 0
 625 80 603 82 580 86 c 1
 547 -3 497 -60 440 -60 c 0
 375 -60 327 9 299 86 c 1
 276 82 253 80 231 80 c 0
 155 80 90 110 90 181 c 0
164 191 m 0
 164 117 236 104 293 104 c 1
 279 146 272 190 270 225 c 1
 278 186 292 143 310 105 c 1
 352 108 396 118 434 130 c 1
 403 114 361 99 317 90 c 1
 342 44 376 10 417 10 c 0
 458 10 496 45 523 100 c 1
 410 134 301 190 199 287 c 1
 176 253 164 220 164 191 c 0
164 469 m 0
 164 440 176 407 199 373 c 1
 301 470 410 526 523 560 c 1
 496 615 458 650 417 650 c 0
 376 650 342 616 317 570 c 1
 361 561 403 546 434 530 c 1
 396 542 352 552 310 555 c 1
 292 517 278 474 270 435 c 1
 272 470 279 514 293 556 c 1
 236 556 164 543 164 469 c 0
232 330 m 1
 311 247 413 182 543 150 c 1
 560 201 570 263 570 330 c 0
 570 397 560 459 543 510 c 1
 413 478 311 413 232 330 c 1
360 330 m 0
 360 374 396 410 440 410 c 0
 484 410 520 374 520 330 c 0
 520 286 484 250 440 250 c 0
 396 250 360 286 360 330 c 0
598 143 m 1
 638 143 738 143 738 230 c 0
 738 257 727 286 709 316 c 1
 679 283 646 254 616 235 c 1
 646 262 677 295 700 330 c 1
 677 365 646 398 616 425 c 1
 646 406 679 377 709 344 c 1
 727 374 738 403 738 430 c 0
 738 517 638 517 598 517 c 1
 612 461 620 398 620 330 c 0
 620 262 612 199 598 143 c 1
EndSplineSet
EndChar

StartChar: uni2622
Encoding: 9762 9762 16
Width: 920
VWidth: 0
Flags: MW
LayerCount: 2
Fore
SplineSet
70 330 m 1
 70 474 148 601 265 668 c 1
 400 434 l 1
 364 413 340 374 340 330 c 1
 70 330 l 1
265 -8 m 1
 400 226 l 1
 418 216 438 210 460 210 c 0
 482 210 502 216 520 226 c 1
 655 -8 l 1
 598 -41 531 -60 460 -60 c 0
 389 -60 322 -41 265 -8 c 1
380 330 m 0
 380 374 416 410 460 410 c 0
 504 410 540 374 540 330 c 0
 540 286 504 250 460 250 c 0
 416 250 380 286 380 330 c 0
520 434 m 1
 655 668 l 1
 772 601 850 474 850 330 c 1
 580 330 l 1
 580 374 556 413 520 434 c 1
EndSplineSet
EndChar

StartChar: uni2699
Encoding: 9881 9881 17
Width: 920
VWidth: 0
Flags: MW
LayerCount: 2
Fore
SplineSet
78 243 m 1
 172 297 l 1
 172 363 l 1
 78 417 l 1
 100 484 l 1
 208 473 l 1
 246 526 l 1
 202 625 l 1
 259 666 l 1
 340 594 l 1
 402 614 l 1
 425 720 l 1
 495 720 l 1
 518 614 l 1
 580 594 l 1
 661 666 l 1
 718 625 l 1
 674 526 l 1
 712 473 l 1
 820 484 l 1
 842 417 l 1
 748 363 l 1
 748 297 l 1
 842 243 l 1
 820 176 l 1
 712 187 l 1
 674 134 l 1
 718 35 l 1
 661 -6 l 1
 580 66 l 1
 518 46 l 1
 495 -60 l 1
 425 -60 l 1
 402 46 l 1
 340 66 l 1
 259 -6 l 1
 202 35 l 1
 246 134 l 1
 208 187 l 1
 100 176 l 1
 78 243 l 1
250 330 m 0
 250 214 344 120 460 120 c 0
 576 120 670 214 670 330 c 0
 670 446 576 540 460 540 c 0
 344 540 250 446 250 330 c 0
330 330 m 0
 330 402 388 460 460 460 c 0
 532 460 590 402 590 330 c 0
 590 258 532 200 460 200 c 0
 388 200 330 258 330 330 c 0
370 330 m 0
 370 280 410 240 460 240 c 0
 510 240 550 280 550 330 c 0
 550 380 510 420 460 420 c 0
 410 420 370 380 370 330 c 0
EndSplineSet
EndChar

StartChar: uni2620
Encoding: 9760 9760 18
Width: 980
VWidth: 0
Flags: MW
LayerCount: 2
Fore
SplineSet
70 236 m 0
 70 256 94 257 94 283 c 0
 94 304 78 298 78 326 c 0
 78 341 95 350 112 350 c 0
 158 350 219 258 300 220 c 1
 310 200 315 180 315 135 c 1
 158 231 70 165 70 236 c 0
93 29 m 1
 93 50 113 67 133 67 c 0
 286 67 296 67 319 79 c 1
 324 54 338 32 352 20 c 1
 215 -20 225 -60 180 -60 c 0
 125 -60 165 0 93 29 c 1
220 520 m 0
 220 619 304 720 490 720 c 0
 676 720 760 619 760 520 c 0
 760 470 742 413 724 383 c 1
 724 442 708 524 670 565 c 1
 705 493 705 401 705 304 c 0
 705 220 585 270 577 143 c 1
 555 134 l 1
 550 164 l 1
 545 131 l 1
 525 127 l 1
 520 161 l 1
 515 126 l 1
 495 125 l 1
 490 160 l 1
 485 125 l 1
 465 126 l 1
 460 161 l 1
 455 127 l 1
 435 131 l 1
 430 164 l 1
 425 134 l 1
 403 143 l 1
 395 270 275 220 275 304 c 0
 275 401 275 493 310 565 c 1
 272 524 256 442 256 383 c 1
 238 413 220 470 220 520 c 0
315 381 m 0
 315 358 339 302 382 302 c 0
 409 302 453 368 453 390 c 0
 453 414 440 430 420 430 c 0
 404 430 315 427 315 381 c 0
328 218 m 1
 368 218 372 183 379 113 c 1
 398 97 l 1
 403 121 l 1
 425 113 l 1
 430 83 l 1
 435 110 l 1
 455 107 l 1
 460 77 l 1
 465 106 l 1
 485 105 l 1
 490 75 l 1
 495 105 l 1
 515 106 l 1
 520 77 l 1
 525 107 l 1
 545 110 l 1
 550 83 l 1
 555 113 l 1
 577 121 l 1
 582 97 l 1
 601 113 l 1
 608 183 612 218 652 218 c 1
 640 185 639 171 639 107 c 0
 639 71 619 0 490 0 c 0
 361 0 341 71 341 107 c 0
 341 171 340 185 328 218 c 1
440 215 m 1
 480 230 l 1
 480 315 l 1
 450 289 440 245 440 215 c 1
500 230 m 1
 540 215 l 1
 540 245 530 289 500 315 c 1
 500 230 l 1
527 390 m 0
 527 368 571 302 598 302 c 0
 641 302 665 358 665 381 c 0
 665 427 576 430 560 430 c 0
 540 430 527 414 527 390 c 0
628 20 m 1
 642 32 656 54 661 79 c 1
 684 67 694 67 847 67 c 0
 867 67 887 50 887 29 c 1
 815 0 855 -60 800 -60 c 0
 755 -60 765 -20 628 20 c 1
665 135 m 1
 665 180 670 200 680 220 c 1
 761 258 822 350 868 350 c 0
 885 350 902 341 902 326 c 0
 902 298 886 304 886 283 c 0
 886 257 910 256 910 236 c 0
 910 165 822 231 665 135 c 1
EndSplineSet
EndChar

StartChar: filledbox
Encoding: 9632 9632 19
Width: 800
VWidth: 0
Flags: W
HStem: 0 660<70 70>
VStem: 70 660<0 660>
LayerCount: 2
Fore
SplineSet
70 0 m 1
 70 660 l 1
 730 660 l 1
 730 0 l 1
 70 0 l 1
EndSplineSet
EndChar

StartChar: uni25AE
Encoding: 9646 9646 20
Width: 470
VWidth: 0
Flags: MW
HStem: 0 660<70 70>
VStem: 70 330<0 660>
LayerCount: 2
Fore
SplineSet
70 0 m 1
 70 660 l 1
 400 660 l 1
 400 0 l 1
 70 0 l 1
EndSplineSet
EndChar

StartChar: filledrect
Encoding: 9644 9644 21
Width: 800
VWidth: 0
Flags: MW
HStem: 165 330<70 730>
VStem: 70 660<495 495>
LayerCount: 2
Fore
SplineSet
70 165 m 1
 70 495 l 1
 730 495 l 1
 730 165 l 1
 70 165 l 1
EndSplineSet
EndChar

StartChar: uni25B6
Encoding: 9654 9654 22
Width: 740
VWidth: 0
Flags: MW
HStem: -30 720
VStem: 60 620
LayerCount: 2
Fore
SplineSet
60 -30 m 1
 60 690 l 1
 680 330 l 1
 60 -30 l 1
EndSplineSet
EndChar

StartChar: uni25C0
Encoding: 9664 9664 23
Width: 740
VWidth: 0
Flags: MW
HStem: -30 720
VStem: 60 620
LayerCount: 2
Fore
SplineSet
60 330 m 1
 680 690 l 1
 680 -30 l 1
 60 330 l 1
EndSplineSet
EndChar

StartChar: triagup
Encoding: 9650 9650 24
Width: 840
VWidth: 0
Flags: MW
HStem: 0 620
VStem: 60 720
LayerCount: 2
Fore
SplineSet
60 0 m 1
 420 620 l 1
 780 0 l 1
 60 0 l 1
EndSplineSet
EndChar

StartChar: triagdn
Encoding: 9660 9660 25
Width: 840
VWidth: 0
Flags: MW
HStem: 40 620
VStem: 60 720
LayerCount: 2
Fore
SplineSet
60 660 m 1
 780 660 l 1
 420 40 l 1
 60 660 l 1
EndSplineSet
EndChar

StartChar: uni25E4
Encoding: 9700 9700 26
Width: 600
VWidth: 0
Flags: MW
HStem: 180 480<60 60>
VStem: 60 480<660 660>
LayerCount: 2
Fore
SplineSet
60 180 m 1
 60 660 l 1
 540 660 l 1
 60 180 l 1
EndSplineSet
EndChar

StartChar: uni25B0
Encoding: 9648 9648 27
Width: 880
VWidth: 0
Flags: W
HStem: 0 21G<0 453.333> 640 20G<426.667 880>
LayerCount: 2
Fore
SplineSet
0 0 m 1
 440 660 l 1
 880 660 l 1
 440 0 l 1
 0 0 l 1
EndSplineSet
EndChar

StartChar: uni25E2
Encoding: 9698 9698 28
Width: 600
VWidth: 0
Flags: MW
HStem: 0 480<540 540>
VStem: 60 480<0 0>
LayerCount: 2
Fore
SplineSet
60 0 m 1
 540 480 l 1
 540 0 l 1
 60 0 l 1
EndSplineSet
EndChar

StartChar: uni25E3
Encoding: 9699 9699 29
Width: 600
VWidth: 0
Flags: MW
HStem: 0 480<60 60>
VStem: 60 480<0 0>
LayerCount: 2
Fore
SplineSet
60 0 m 1
 60 480 l 1
 540 0 l 1
 60 0 l 1
EndSplineSet
EndChar

StartChar: uni25E5
Encoding: 9701 9701 30
Width: 600
VWidth: 0
Flags: MW
HStem: 180 480<540 540>
VStem: 60 480<660 660>
LayerCount: 2
Fore
SplineSet
60 660 m 1
 540 660 l 1
 540 180 l 1
 60 660 l 1
EndSplineSet
EndChar

StartChar: u1F52B
Encoding: 128299 128299 31
Width: 1280
Flags: MW
LayerCount: 2
Fore
SplineSet
70 410 m 0
 70 460 85 525 100 540 c 1
 280 555 l 1
 295 610 l 1
 690 610 947 589 1184 501 c 1
 1174 461 l 1
 1210 455 l 1
 1200 365 l 1
 1149 361 l 1
 1140 325 l 1
 905 325 l 1
 845 265 845 265 785 265 c 2
 670 265 l 2
 640 265 630 255 620 240 c 2
 480 30 l 2
 460 0 450 0 420 0 c 2
 315 0 l 2
 230 0 135 15 135 80 c 0
 135 145 265 240 265 287 c 0
 265 310 250 325 225 330 c 2
 75 360 l 1
 70 375 70 390 70 410 c 0
325 75 m 0
 325 65 330 50 355 50 c 0
 440 50 440 50 450 65 c 0
 490 125 580 260 580 270 c 0
 580 310 545 325 510 325 c 0
 485 325 465 320 450 310 c 1
 470 210 l 1
 450 195 405 190 375 190 c 1
 355 150 325 90 325 75 c 0
EndSplineSet
EndChar

StartChar: u1F603
Encoding: 128515 128515 32
Width: 960
VWidth: -40
Flags: MW
LayerCount: 2
Fore
SplineSet
70 330 m 0
 70 720 70 720 480 720 c 0
 890 720 890 720 890 330 c 0
 890 -60 890 -60 480 -60 c 0
 70 -60 70 -60 70 330 c 0
140 325 m 1
 210 175 320 75 480 75 c 0
 640 75 750 175 820 325 c 1
 740 225 625 150 480 150 c 0
 335 150 220 225 140 325 c 1
270 480 m 0
 270 414 301 360 340 360 c 0
 379 360 410 414 410 480 c 0
 410 546 379 600 340 600 c 0
 301 600 270 546 270 480 c 0
550 480 m 0
 550 414 581 360 620 360 c 0
 659 360 690 414 690 480 c 0
 690 546 659 600 620 600 c 0
 581 600 550 546 550 480 c 0
EndSplineSet
EndChar

StartChar: uni267B
Encoding: 9851 9851 33
Width: 914
VWidth: 0
Flags: MW
LayerCount: 2
Fore
SplineSet
70 278 m 0
 70 286 72 294 78 304 c 2
 127 389 l 1
 75 419 l 1
 248 419 l 1
 335 269 l 1
 283 299 l 1
 191 140 l 2
 178 118 178 103 178 78 c 1
 83 243 l 2
 75 256 70 267 70 278 c 0
197 86 m 0
 197 100 200 115 209 130 c 2
 237 180 l 1
 430 180 l 1
 430 0 l 1
 274 0 l 2
 231 0 197 39 197 86 c 0
198 511 m 1
 276 646 l 18
 291 672 318 682 344 682 c 0
 373 682 404 669 422 638 c 2
 450 589 l 1
 354 421 l 1
 198 511 l 1
392 690 m 1
 582 690 l 2
 607 690 623 689 637 664 c 2
 686 580 l 1
 738 610 l 1
 652 459 l 1
 478 459 l 1
 531 490 l 1
 439 648 l 2
 429 665 415 680 392 690 c 1
485 90 m 1
 572 240 l 1
 572 180 l 1
 755 180 l 2
 775 180 795 185 815 200 c 1
 720 35 l 2
 707 13 699 0 670 0 c 2
 572 0 l 1
 572 -60 l 1
 485 90 l 1
601 367 m 1
 757 457 l 1
 835 322 l 2
 841 312 844 298 844 285 c 0
 844 248 810 200 755 200 c 2
 698 200 l 1
 601 367 l 1
EndSplineSet
EndChar

StartChar: u1F601
Encoding: 128513 128513 34
Width: 960
VWidth: -20
Flags: MW
LayerCount: 2
Fore
SplineSet
70 330 m 0
 70 720 70 720 480 720 c 0
 890 720 890 720 890 330 c 0
 890 -60 890 -60 480 -60 c 0
 70 -60 70 -60 70 330 c 0
155 320 m 0
 155 205 270 20 480 20 c 0
 690 20 805 205 805 320 c 0
 805 350 805 375 795 410 c 1
 165 410 l 1
 155 375 155 350 155 320 c 0
165 295 m 1
 210 265 245 250 290 240 c 1
 300 400 l 1
 310 235 l 1
 355 225 425 220 470 220 c 1
 480 400 l 1
 490 220 l 1
 535 220 605 225 650 235 c 1
 660 400 l 1
 670 240 l 1
 715 250 750 265 795 295 c 1
 755 260 715 240 670 230 c 1
 660 85 l 1
 650 225 l 1
 605 215 535 205 490 205 c 1
 480 30 l 1
 470 205 l 1
 425 205 355 215 310 225 c 1
 300 85 l 1
 290 230 l 1
 245 240 205 260 165 295 c 1
220 490 m 1
 260 535 285 550 330 550 c 0
 375 550 400 535 440 490 c 1
 425 560 390 600 330 600 c 0
 270 600 235 560 220 490 c 1
520 490 m 1
 560 535 585 550 630 550 c 0
 675 550 700 535 740 490 c 1
 725 560 690 600 630 600 c 0
 570 600 535 560 520 490 c 1
EndSplineSet
EndChar

StartChar: u1F610
Encoding: 128528 128528 35
Width: 960
VWidth: -40
Flags: MW
LayerCount: 2
Fore
SplineSet
70 330 m 0
 70 720 70 720 480 720 c 0
 890 720 890 720 890 330 c 0
 890 -60 890 -60 480 -60 c 0
 70 -60 70 -60 70 330 c 0
260 160 m 1
 700 160 l 1
 700 200 l 1
 260 200 l 1
 260 160 l 1
270 480 m 0
 270 425 301 380 340 380 c 0
 379 380 410 425 410 480 c 0
 410 535 379 580 340 580 c 0
 301 580 270 535 270 480 c 0
550 480 m 0
 550 425 581 380 620 380 c 0
 659 380 690 425 690 480 c 0
 690 535 659 580 620 580 c 0
 581 580 550 535 550 480 c 0
EndSplineSet
EndChar

StartChar: u1F612
Encoding: 128530 128530 36
Width: 960
VWidth: -40
Flags: MW
LayerCount: 2
Fore
SplineSet
70 330 m 0
 70 720 70 720 480 720 c 0
 890 720 890 720 890 330 c 0
 890 -60 890 -60 480 -60 c 0
 70 -60 70 -60 70 330 c 0
210 510 m 1
 300 500 l 1
 300 434 331 380 370 380 c 0
 409 380 440 434 440 500 c 0
 440 515 439 525 435 540 c 1
 210 540 l 1
 210 510 l 1
260 160 m 1
 700 160 l 1
 700 200 l 1
 260 200 l 1
 260 160 l 1
490 510 m 1
 580 500 l 1
 580 434 611 380 650 380 c 0
 689 380 720 434 720 500 c 0
 720 515 719 525 715 540 c 1
 490 540 l 1
 490 510 l 1
EndSplineSet
EndChar

StartChar: u1F618
Encoding: 128536 128536 37
Width: 1370
VWidth: -40
Flags: MW
LayerCount: 2
Fore
SplineSet
70 330 m 0
 70 720 70 720 480 720 c 0
 890 720 890 720 890 330 c 0
 890 -60 890 -60 480 -60 c 0
 70 -60 70 -60 70 330 c 0
220 430 m 1
 260 475 285 490 330 490 c 0
 375 490 400 475 440 430 c 1
 425 500 390 540 330 540 c 0
 270 540 235 500 220 430 c 1
345 155 m 1
 405 85 415 20 530 20 c 0
 645 20 630 85 690 155 c 1
 630 200 620 285 570 285 c 0
 550 285 540 265 530 245 c 1
 520 265 500 285 480 285 c 0
 430 285 400 200 345 155 c 1
360 150 m 1
 380 146 400 145 419 145 c 0
 487 145 539 167 545 195 c 1
 554 166 592 144 636 144 c 0
 649 144 662 146 675 150 c 1
 655 141 638 138 624 138 c 0
 596 138 580 150 570 150 c 0
 560 150 550 130 545 115 c 1
 545 130 530 150 520 150 c 0
 510 150 492 139 448 139 c 0
 426 139 397 142 360 150 c 1
550 480 m 0
 550 414 581 360 620 360 c 0
 659 360 690 414 690 480 c 0
 690 546 659 600 620 600 c 0
 581 600 550 546 550 480 c 0
910 680 m 0
 910 735 955 780 1010 780 c 0
 1060 780 1095 745 1105 710 c 1
 1115 745 1150 780 1200 780 c 0
 1255 780 1300 735 1300 680 c 0
 1300 595 1265 555 1105 450 c 1
 945 555 910 595 910 680 c 0
EndSplineSet
EndChar

StartChar: u1F61B
Encoding: 128539 128539 38
Width: 960
VWidth: -40
Flags: MW
LayerCount: 2
Fore
SplineSet
70 330 m 0
 70 720 70 720 480 720 c 0
 890 720 890 720 890 330 c 0
 890 -60 890 -60 480 -60 c 0
 70 -60 70 -60 70 330 c 0
195 305 m 1
 255 240 315 205 415 175 c 1
 435 150 440 125 440 95 c 0
 440 60 460 0 540 0 c 0
 590 0 635 25 635 95 c 0
 635 120 625 150 595 180 c 1
 675 205 715 245 740 290 c 1
 665 260 605 240 510 240 c 0
 395 240 285 270 195 305 c 1
270 500 m 0
 270 434 301 380 340 380 c 0
 379 380 410 434 410 500 c 0
 410 566 379 620 340 620 c 0
 301 620 270 566 270 500 c 0
490 195 m 1
 520 195 l 1
 560 160 560 110 560 60 c 1
 555 110 535 155 490 195 c 1
550 500 m 0
 550 434 581 380 620 380 c 0
 659 380 690 434 690 500 c 0
 690 566 659 620 620 620 c 0
 581 620 550 566 550 500 c 0
EndSplineSet
EndChar

StartChar: u1F61D
Encoding: 128541 128541 39
Width: 960
VWidth: -40
Flags: MW
LayerCount: 2
Fore
SplineSet
70 330 m 0
 70 720 70 720 480 720 c 0
 890 720 890 720 890 330 c 0
 890 -60 890 -60 480 -60 c 0
 70 -60 70 -60 70 330 c 0
200 145 m 1
 270 175 350 205 420 205 c 1
 450 185 460 145 460 95 c 0
 460 60 480 0 560 0 c 0
 610 0 655 25 655 95 c 0
 655 135 629 173 590 200 c 1
 635 200 705 185 750 160 c 1
 725 215 630 275 520 275 c 0
 375 275 275 215 200 145 c 1
225 370 m 1
 230 360 l 1
 410 450 l 2
 420 455 430 465 430 480 c 0
 430 495 420 505 410 510 c 2
 230 600 l 1
 225 590 l 1
 350 480 l 1
 225 370 l 1
500 215 m 1
 530 215 l 1
 570 180 575 120 575 70 c 1
 570 120 545 175 500 215 c 1
530 480 m 0
 530 465 540 455 550 450 c 2
 730 360 l 1
 735 370 l 1
 610 480 l 1
 735 590 l 1
 730 600 l 1
 550 510 l 2
 540 505 530 495 530 480 c 0
EndSplineSet
EndChar

StartChar: u1F620
Encoding: 128544 128544 40
Width: 960
VWidth: -40
Flags: MW
LayerCount: 2
Fore
SplineSet
70 330 m 0
 70 720 70 720 480 720 c 0
 890 720 890 720 890 330 c 0
 890 -60 890 -60 480 -60 c 0
 70 -60 70 -60 70 330 c 0
230 80 m 1
 310 160 360 185 480 185 c 0
 600 185 650 160 730 80 c 1
 680 180 600 260 480 260 c 0
 360 260 280 180 230 80 c 1
270 480 m 0
 270 414 301 360 340 360 c 0
 375 360 404 404 409 461 c 1
 296 574 l 1
 280 552 270 518 270 480 c 0
550 461 m 1
 555 404 584 360 619 360 c 0
 658 360 689 414 689 480 c 0
 689 518 679 552 663 574 c 1
 550 461 l 1
EndSplineSet
EndChar

StartChar: u1F623
Encoding: 128547 128547 41
Width: 960
VWidth: -40
Flags: MW
LayerCount: 2
Fore
SplineSet
70 330 m 0
 70 720 70 720 480 720 c 0
 890 720 890 720 890 330 c 0
 890 -60 890 -60 480 -60 c 0
 70 -60 70 -60 70 330 c 0
225 370 m 1
 230 360 l 1
 410 450 l 2
 420 455 430 465 430 480 c 0
 430 495 420 505 410 510 c 2
 230 600 l 1
 225 590 l 1
 350 480 l 1
 225 370 l 1
230 80 m 1
 310 160 360 185 480 185 c 0
 600 185 650 160 730 80 c 1
 680 180 600 260 480 260 c 0
 360 260 280 180 230 80 c 1
530 480 m 0
 530 465 540 455 550 450 c 2
 730 360 l 1
 735 370 l 1
 610 480 l 1
 735 590 l 1
 730 600 l 1
 550 510 l 2
 540 505 530 495 530 480 c 0
EndSplineSet
EndChar

StartChar: u1F632
Encoding: 128562 128562 42
Width: 960
VWidth: -40
Flags: MW
LayerCount: 2
Fore
SplineSet
70 330 m 0
 70 720 70 720 480 720 c 0
 890 720 890 720 890 330 c 0
 890 -60 890 -60 480 -60 c 0
 70 -60 70 -60 70 330 c 0
194 60 m 1
 766 60 l 1
 742 196 623 300 480 300 c 0
 337 300 218 196 194 60 c 1
200 480 m 0
 200 414 254 360 320 360 c 0
 386 360 440 414 440 480 c 0
 440 546 386 600 320 600 c 0
 254 600 200 546 200 480 c 0
280 480 m 0
 280 502 298 520 320 520 c 0
 342 520 360 502 360 480 c 0
 360 458 342 440 320 440 c 0
 298 440 280 458 280 480 c 0
520 480 m 0
 520 414 574 360 640 360 c 0
 706 360 760 414 760 480 c 0
 760 546 706 600 640 600 c 0
 574 600 520 546 520 480 c 0
600 480 m 0
 600 502 618 520 640 520 c 0
 662 520 680 502 680 480 c 0
 680 458 662 440 640 440 c 0
 618 440 600 458 600 480 c 0
EndSplineSet
EndChar

StartChar: u1F634
Encoding: 128564 128564 43
Width: 1490
VWidth: -40
Flags: MW
LayerCount: 2
Fore
SplineSet
70 330 m 0
 70 720 70 720 480 720 c 0
 890 720 890 720 890 330 c 0
 890 -60 890 -60 480 -60 c 0
 70 -60 70 -60 70 330 c 0
220 490 m 1
 235 420 270 380 330 380 c 0
 390 380 425 420 440 490 c 1
 400 445 375 430 330 430 c 0
 285 430 260 445 220 490 c 1
360 100 m 0
 360 56 414 20 480 20 c 0
 546 20 600 56 600 100 c 0
 600 144 546 180 480 180 c 0
 414 180 360 144 360 100 c 0
520 490 m 1
 535 420 570 380 630 380 c 0
 690 380 725 420 740 490 c 1
 700 445 675 430 630 430 c 0
 585 430 560 445 520 490 c 1
925 560 m 1
 925 591 l 1
 1049 695 l 1
 931 695 l 1
 931 725 l 1
 1115 725 l 1
 1115 694 l 1
 991 590 l 1
 1120 590 l 1
 1120 560 l 1
 925 560 l 1
1160 560 m 1
 1160 602 l 1
 1324 740 l 1
 1168 740 l 1
 1168 780 l 1
 1414 780 l 1
 1414 738 l 1
 1250 600 l 1
 1420 600 l 1
 1420 560 l 1
 1160 560 l 1
EndSplineSet
EndChar

StartChar: u1F62D
Encoding: 128557 128557 44
Width: 1670
VWidth: -40
Flags: MW
LayerCount: 2
Fore
SplineSet
70 440 m 0
 70 510 225 540 305 540 c 1
 170 465 200 380 130 380 c 0
 97 380 70 407 70 440 c 0
90 700 m 0
 90 744 126 780 170 780 c 0
 250 780 360 740 440 680 c 1
 225 680 240 620 170 620 c 0
 126 620 90 656 90 700 c 0
425 330 m 0
 425 720 425 720 835 720 c 0
 1245 720 1245 720 1245 330 c 0
 1245 -60 1245 -60 835 -60 c 0
 425 -60 425 -60 425 330 c 0
515 260 m 0
 515 150 575 70 645 70 c 0
 705 70 735 160 835 160 c 0
 935 160 965 70 1025 70 c 0
 1095 70 1155 150 1155 260 c 0
 1155 370 1095 450 1025 450 c 0
 945 450 935 380 835 380 c 0
 735 380 725 450 645 450 c 0
 575 450 515 370 515 260 c 0
575 520 m 1
 615 565 640 580 685 580 c 0
 730 580 755 565 795 520 c 1
 780 590 745 630 685 630 c 0
 625 630 590 590 575 520 c 1
875 520 m 1
 915 565 940 580 985 580 c 0
 1030 580 1055 565 1095 520 c 1
 1080 590 1045 630 985 630 c 0
 925 630 890 590 875 520 c 1
1230 680 m 1
 1310 740 1420 780 1500 780 c 0
 1544 780 1580 744 1580 700 c 0
 1580 656 1544 620 1500 620 c 0
 1430 620 1445 680 1230 680 c 1
1365 540 m 1
 1445 540 1600 510 1600 440 c 0
 1600 407 1573 380 1540 380 c 0
 1470 380 1500 465 1365 540 c 1
EndSplineSet
EndChar

StartChar: u1F606
Encoding: 128518 128518 45
Width: 960
VWidth: -20
Flags: MW
LayerCount: 2
Fore
SplineSet
70 330 m 0
 70 720 70 720 480 720 c 0
 890 720 890 720 890 330 c 0
 890 -60 890 -60 480 -60 c 0
 70 -60 70 -60 70 330 c 0
150 340 m 1
 150 210 260 20 480 20 c 0
 700 20 810 210 810 340 c 1
 150 340 l 1
225 410 m 1
 230 400 l 1
 410 490 l 2
 420 495 430 505 430 520 c 0
 430 535 420 545 410 550 c 2
 230 640 l 1
 225 630 l 1
 350 520 l 1
 225 410 l 1
530 520 m 0
 530 505 540 495 550 490 c 2
 730 400 l 1
 735 410 l 1
 610 520 l 1
 735 630 l 1
 730 640 l 1
 550 550 l 2
 540 545 530 535 530 520 c 0
EndSplineSet
EndChar

StartChar: u1F607
Encoding: 128519 128519 46
Width: 960
VWidth: -20
Flags: MW
LayerCount: 2
Fore
SplineSet
70 330 m 0
 70 720 70 720 480 720 c 0
 890 720 890 720 890 330 c 0
 890 -60 890 -60 480 -60 c 0
 70 -60 70 -60 70 330 c 0
120 815 m 0
 120 856 281 890 480 890 c 0
 679 890 840 856 840 815 c 0
 840 774 679 740 480 740 c 0
 281 740 120 774 120 815 c 0
140 325 m 1
 210 175 320 75 480 75 c 0
 640 75 750 175 820 325 c 1
 740 225 625 150 480 150 c 0
 335 150 220 225 140 325 c 1
220 490 m 1
 235 420 270 380 330 380 c 0
 390 380 425 420 440 490 c 1
 400 445 375 430 330 430 c 0
 285 430 260 445 220 490 c 1
240 805 m 0
 240 780 347 760 480 760 c 0
 613 760 720 780 720 805 c 0
 720 830 613 850 480 850 c 0
 347 850 240 830 240 805 c 0
520 490 m 1
 535 420 570 380 630 380 c 0
 690 380 725 420 740 490 c 1
 700 445 675 430 630 430 c 0
 585 430 560 445 520 490 c 1
EndSplineSet
EndChar

StartChar: u1F608
Encoding: 128520 128520 47
Width: 1090
VWidth: -20
Flags: MW
LayerCount: 2
Fore
SplineSet
70 720 m 0
 70 780 90 850 135 890 c 1
 135 816 154 737 241 701 c 1
 301 720 396 720 545 720 c 0
 694 720 789 720 849 701 c 1
 936 737 955 816 955 890 c 1
 1000 850 1020 780 1020 720 c 0
 1020 661 1001 607 948 558 c 1
 955 503 955 429 955 330 c 0
 955 -60 955 -60 545 -60 c 0
 135 -60 135 -60 135 330 c 0
 135 429 135 503 142 558 c 1
 89 607 70 661 70 720 c 0
210 260 m 0
 210 205 340 80 545 80 c 0
 750 80 880 205 880 260 c 0
 880 280 875 290 855 290 c 0
 830 290 785 255 545 255 c 0
 305 255 260 290 235 290 c 0
 215 290 210 280 210 260 c 0
335 480 m 0
 335 414 366 360 405 360 c 0
 440 360 469 404 474 461 c 1
 361 574 l 1
 345 552 335 518 335 480 c 0
615 461 m 1
 620 404 649 360 684 360 c 0
 723 360 754 414 754 480 c 0
 754 518 744 552 728 574 c 1
 615 461 l 1
EndSplineSet
EndChar

StartChar: u1F61F
Encoding: 128543 128543 48
Width: 960
VWidth: -20
Flags: MW
LayerCount: 2
Fore
SplineSet
70 330 m 0
 70 720 70 720 480 720 c 0
 890 720 890 720 890 330 c 0
 890 -60 890 -60 480 -60 c 0
 70 -60 70 -60 70 330 c 0
230 60 m 1
 310 140 360 165 480 165 c 0
 600 165 650 140 730 60 c 1
 680 160 600 240 480 240 c 0
 360 240 280 160 230 60 c 1
271 481 m 1
 276 424 305 380 340 380 c 0
 379 380 410 434 410 500 c 0
 410 538 400 572 384 594 c 1
 271 481 l 1
550 500 m 0
 550 434 581 380 620 380 c 0
 655 380 684 424 689 481 c 1
 576 594 l 1
 560 572 550 538 550 500 c 0
EndSplineSet
EndChar

StartChar: u1F47D
Encoding: 128125 128125 49
Width: 780
VWidth: 0
Flags: MW
LayerCount: 2
Fore
SplineSet
70 400 m 0
 70 590 190 720 390 720 c 0
 590 720 710 590 710 400 c 0
 710 260 680 200 580 80 c 0
 530 20 470 -60 390 -60 c 0
 310 -60 250 20 200 80 c 0
 100 200 70 260 70 400 c 0
150 270 m 0
 150 190 250 110 320 110 c 0
 345 110 360 115 360 140 c 0
 360 200 255 335 200 335 c 0
 165 335 150 305 150 270 c 0
325 40 m 1
 335 20 355 0 390 0 c 0
 425 0 445 20 455 40 c 1
 445 35 420 30 390 30 c 0
 360 30 335 35 325 40 c 1
420 140 m 0
 420 115 435 110 460 110 c 0
 530 110 630 190 630 270 c 0
 630 305 615 335 580 335 c 0
 525 335 420 200 420 140 c 0
EndSplineSet
EndChar

StartChar: u1F4A1
Encoding: 128161 128161 50
Width: 640
VWidth: 0
Flags: MW
LayerCount: 2
Fore
SplineSet
70 480 m 0
 70 615 185 720 320 720 c 0
 455 720 570 615 570 480 c 0
 570 385 460 295 460 210 c 0
 460 185 455 165 430 140 c 1
 430 120 l 2
 430 110 410 110 410 100 c 0
 410 90 430 90 430 80 c 0
 430 70 410 70 410 60 c 0
 410 50 430 50 430 40 c 0
 430 30 410 30 410 20 c 0
 410 10 425 10 425 0 c 0
 425 -10 390 -30 375 -60 c 1
 265 -60 l 1
 250 -30 215 -10 215 0 c 0
 215 10 230 10 230 20 c 0
 230 30 210 30 210 40 c 0
 210 50 230 50 230 60 c 0
 230 70 210 70 210 80 c 0
 210 90 230 90 230 100 c 0
 230 110 210 110 210 120 c 2
 210 140 l 1
 185 165 180 185 180 210 c 0
 180 295 70 385 70 480 c 0
95 480 m 0
 95 395 200 300 200 210 c 0
 200 190 205 170 220 160 c 1
 420 160 l 1
 435 170 440 190 440 210 c 0
 440 300 545 395 545 480 c 0
 545 595 445 685 320 685 c 0
 195 685 95 595 95 480 c 0
180 500 m 1
 192 506 l 1
 280 340 l 1
 287 180 l 1
 265 180 l 1
 260 330 l 1
 180 500 l 1
205 500 m 1
 215 540 l 1
 225 540 l 1
 240 498 l 1
 255 540 l 1
 265 540 l 1
 280 498 l 1
 295 540 l 1
 305 540 l 1
 320 498 l 1
 335 540 l 1
 345 540 l 1
 360 498 l 1
 375 540 l 1
 385 540 l 1
 400 498 l 1
 415 540 l 1
 425 540 l 1
 435 500 l 1
 420 522 l 1
 405 480 l 1
 395 480 l 1
 380 522 l 1
 365 480 l 1
 355 480 l 1
 340 522 l 1
 325 480 l 1
 315 480 l 1
 300 522 l 1
 285 480 l 1
 275 480 l 1
 260 522 l 1
 245 480 l 1
 235 480 l 1
 220 522 l 1
 205 500 l 1
353 180 m 1
 360 340 l 1
 448 506 l 1
 460 500 l 1
 380 330 l 1
 375 180 l 1
 353 180 l 1
EndSplineSet
EndChar

StartChar: u1F4E1
Encoding: 128225 128225 51
Width: 800
VWidth: 0
Flags: MW
LayerCount: 2
Fore
SplineSet
70 0 m 1
 80 60 l 1
 175 65 189 85 203 127 c 2
 246 256 l 1
 151 359 125 465 125 571 c 0
 125 613 136 720 201 720 c 0
 281 720 397 650 512 540 c 1
 580 599 l 1
 563 617 l 1
 608 657 628 672 638 672 c 0
 648 672 681 639 681 629 c 0
 681 619 671 603 626 553 c 1
 609 571 l 1
 550 503 l 1
 641 408 730 282 730 191 c 0
 730 130 632 115 572 115 c 0
 514 115 452 127 390 154 c 1
 390 80 410 65 450 60 c 2
 530 50 l 1
 540 0 l 1
 70 0 l 1
195 632 m 0
 195 499 509 186 642 186 c 0
 668 186 683 200 683 227 c 0
 683 281 625 380 530 480 c 1
 425 359 l 1
 368 416 l 1
 489 520 l 1
 391 613 290 674 237 674 c 0
 210 674 195 659 195 632 c 0
EndSplineSet
EndChar

StartChar: u1F52D
Encoding: 128301 128301 52
Width: 1045
VWidth: 0
Flags: MW
LayerCount: 2
Fore
SplineSet
70 317 m 1
 70 328 l 1
 103 342 l 1
 88 378 l 1
 125 394 l 1
 140 357 l 1
 247 401 l 1
 251 430 l 1
 694 613 l 1
 699 642 l 1
 792 681 885 720 890 720 c 0
 925 720 975 636 975 570 c 0
 975 548 968 537 960 534 c 2
 775 457 l 1
 752 475 l 1
 622 421 l 1
 621 399 l 1
 584 384 l 1
 594 359 l 1
 612 352 622 343 630 325 c 2
 806 -53 l 1
 790 -60 l 1
 604 265 l 1
 588 0 l 1
 572 0 l 1
 554 265 l 1
 370 -60 l 1
 354 -53 l 1
 536 341 l 1
 529 361 l 1
 492 345 l 1
 475 360 l 1
 308 291 l 1
 285 308 l 1
 188 268 l 1
 70 317 l 1
885 675 m 0
 885 628 924 556 947 556 c 0
 953 556 959 562 959 580 c 0
 959 620 921 696 897 696 c 0
 890 696 885 691 885 675 c 0
EndSplineSet
EndChar

StartChar: u1F680
Encoding: 128640 128640 53
Width: 890
VWidth: 0
Flags: MW
LayerCount: 2
Fore
SplineSet
70 -60 m 1
 70 40 95 90 165 145 c 1
 130 85 120 40 120 -10 c 1
 170 -10 215 0 275 35 c 1
 220 -35 170 -60 70 -60 c 1
90 325 m 1
 185 440 l 1
 350 440 l 1
 245 295 l 1
 90 325 l 1
195 185 m 1
 215 210 275 210 290 210 c 1
 250 265 l 1
 365 440 535 690 820 690 c 1
 820 405 570 235 395 120 c 1
 340 160 l 1
 340 145 340 85 315 65 c 1
 295 65 195 165 195 185 c 1
425 115 m 1
 570 220 l 1
 570 55 l 1
 455 -40 l 1
 425 115 l 1
EndSplineSet
EndChar

StartChar: u1F527
Encoding: 128295 128295 54
Width: 950
Flags: MW
LayerCount: 2
Fore
SplineSet
70 45 m 1
 235 210 l 1
 265 210 335 240 335 300 c 1
 355 320 l 1
 395 295 l 1
 690 590 l 1
 700 630 l 1
 800 700 l 1
 830 670 l 1
 760 570 l 1
 720 560 l 1
 425 265 l 1
 450 225 l 1
 430 205 l 1
 370 205 340 135 340 105 c 1
 175 -60 l 1
 125 -60 70 -5 70 45 c 1
120 555 m 1
 125 565 l 1
 230 505 l 1
 275 530 295 570 295 620 c 1
 190 680 l 1
 200 700 l 1
 360 700 385 640 385 550 c 0
 385 525 450 460 490 420 c 1
 410 340 l 1
 370 380 320 430 295 430 c 0
 195 430 145 480 120 555 c 1
470 280 m 1
 550 360 l 1
 610 300 680 230 705 230 c 0
 805 230 855 180 880 105 c 1
 875 95 l 1
 770 155 l 1
 725 130 705 90 705 40 c 1
 810 -20 l 1
 800 -40 l 1
 640 -40 615 20 615 110 c 0
 615 135 530 220 470 280 c 1
EndSplineSet
EndChar

StartChar: u1F50B
Encoding: 128267 128267 55
Width: 540
VWidth: 0
Flags: MW
LayerCount: 2
Fore
SplineSet
70 10 m 1
 70 640 l 2
 70 661 122 679 195 686 c 1
 198 715 201 720 270 720 c 0
 339 720 342 715 345 686 c 1
 418 679 470 661 470 640 c 2
 470 10 l 1
 460 0 l 1
 460 -10 l 2
 460 -38 375 -60 270 -60 c 0
 165 -60 80 -38 80 -10 c 2
 80 0 l 1
 70 10 l 1
110 640 m 0
 110 618 182 600 270 600 c 0
 358 600 430 618 430 640 c 0
 430 655 396 668 346 675 c 1
 350 639 l 1
 350 628 314 619 270 619 c 0
 226 619 190 628 190 639 c 1
 194 675 l 1
 144 668 110 655 110 640 c 0
210 475 m 1
 250 475 l 1
 250 440 l 1
 290 440 l 1
 290 475 l 1
 330 475 l 1
 330 505 l 1
 290 505 l 1
 290 540 l 1
 250 540 l 1
 250 505 l 1
 210 505 l 1
 210 475 l 1
220 20 m 1
 320 20 l 1
 320 50 l 1
 220 50 l 1
 220 20 l 1
EndSplineSet
EndChar

StartChar: u1F30D
Encoding: 127757 127757 56
Width: 920
VWidth: 0
Flags: MW
LayerCount: 2
Fore
SplineSet
70 330 m 0
 70 545 245 720 460 720 c 0
 675 720 850 545 850 330 c 0
 850 115 675 -60 460 -60 c 0
 245 -60 70 115 70 330 c 0
90 330 m 0
 90 261 109 197 142 142 c 1
 147 232 l 1
 105 291 95 316 94 386 c 1
 91 368 90 349 90 330 c 0
177 568 m 1
 227 585 l 1
 260 628 326 679 393 679 c 1
 367 671 292 635 286 612 c 1
 314 630 337 633 365 633 c 1
 426 667 l 1
 406 696 l 1
 314 683 234 636 177 568 c 1
226 329 m 0
 226 307 248 261 274 261 c 2
 328 261 l 2
 397 261 380 36 445 36 c 0
 510 36 561 108 561 138 c 0
 561 237 615 215 628 304 c 1
 587 288 l 1
 543 325 517 379 517 399 c 1
 530 399 570 339 584 303 c 1
 618 317 653 344 662 380 c 1
 613 380 600 386 589 421 c 1
 621 400 636 400 692 400 c 0
 718 400 733 325 758 312 c 1
 758 353 761 386 776 419 c 1
 790 419 813 396 829 351 c 1
 820 515 704 651 549 689 c 1
 580 664 l 1
 549 668 l 1
 549 615 531 635 495 595 c 1
 495 605 495 609 503 614 c 1
 488 623 474 626 464 626 c 0
 449 626 408 600 396 574 c 1
 417 576 l 1
 425 558 l 1
 443 569 437 605 464 605 c 1
 464 597 453 594 453 580 c 1
 478 581 l 1
 455 555 443 549 412 549 c 1
 407 565 l 1
 398 542 371 530 349 528 c 1
 349 516 348 509 341 498 c 1
 315 503 l 1
 298 465 l 1
 331 458 l 1
 346 482 364 495 389 500 c 1
 421 465 l 1
 421 461 415 458 401 458 c 1
 413 450 l 1
 431 472 l 1
 415 481 409 491 409 503 c 1
 447 492 438 453 455 450 c 1
 458 488 487 468 487 509 c 1
 509 509 546 495 546 479 c 1
 494 479 474 476 474 461 c 0
 474 452 522 464 522 417 c 1
 482 417 464 417 442 429 c 1
 435 409 l 1
 411 416 386 429 386 457 c 1
 271 457 226 386 226 329 c 0
332 546 m 1
 347 549 l 1
 354 563 l 1
 340 563 333 554 332 546 c 1
341 535 m 1
 373 540 l 1
 368 579 l 1
 349 569 371 554 341 535 c 1
343 607 m 1
 356 607 367 609 367 618 c 1
 348 622 l 1
 343 607 l 1
561 509 m 1
 588 509 607 476 607 462 c 1
 583 464 l 1
 583 480 574 497 561 509 c 1
571 78 m 1
 595 78 619 115 619 155 c 1
 581 123 l 1
 571 78 l 1
EndSplineSet
EndChar

StartChar: u1F30E
Encoding: 127758 127758 57
Width: 920
VWidth: 0
Flags: MW
LayerCount: 2
Fore
SplineSet
70 330 m 0
 70 545 245 720 460 720 c 0
 675 720 850 545 850 330 c 0
 850 115 675 -60 460 -60 c 0
 245 -60 70 115 70 330 c 0
237 608 m 1
 268 608 276 610 297 619 c 1
 297 503 261 527 261 458 c 1
 281 450 263 405 292 376 c 1
 286 396 282 416 282 437 c 1
 294 388 312 386 312 359 c 0
 312 318 423 310 423 281 c 1
 437 261 465 282 479 255 c 1
 470 224 454 223 454 187 c 0
 454 154 518 117 518 101 c 0
 518 71 477 -17 477 -17 c 1
 501 -23 l 1
 546 46 681 61 723 216 c 1
 618 216 653 290 492 290 c 1
 482 265 l 1
 468 287 449 267 436 287 c 1
 440 315 l 1
 408 319 l 1
 421 355 l 1
 399 352 l 1
 398 341 391 335 378 335 c 0
 362 335 357 350 357 371 c 0
 357 397 365 410 424 410 c 0
 441 410 445 403 445 389 c 1
 460 372 l 1
 460 403 453 400 453 411 c 1
 508 449 456 470 547 508 c 1
 529 508 526 513 526 524 c 1
 519 524 508 520 500 511 c 1
 514 542 538 524 554 543 c 1
 535 567 493 590 469 590 c 1
 469 564 468 553 462 533 c 1
 455 553 431 566 411 570 c 1
 411 585 436 605 456 615 c 1
 378 615 343 634 343 656 c 1
 272 645 286 617 237 608 c 1
284 656 m 1
 312 654 l 1
 331 671 355 683 387 693 c 1
 351 686 316 673 284 656 c 1
378 640 m 1
 387 625 l 1
 419 619 l 1
 393 648 l 1
 378 640 l 1
400 652 m 1
 405 644 l 1
 420 644 l 1
 423 657 l 1
 400 652 l 1
417 637 m 1
 430 620 l 1
 440 638 l 1
 417 637 l 1
425 644 m 1
 460 639 l 1
 475 666 l 1
 453 666 437 659 425 644 c 1
433 363 m 1
 474 342 l 1
 498 344 l 1
 477 359 459 363 433 363 c 1
441 627 m 1
 466 623 478 619 478 600 c 1
 505 586 l 1
 505 608 l 1
 494 622 469 635 446 636 c 1
 441 627 l 1
470 648 m 1
 521 648 520 589 568 589 c 1
 566 639 l 1
 510 672 l 1
 488 672 479 667 470 648 c 1
500 344 m 1
 512 329 l 1
 531 336 l 1
 559 336 575 328 579 307 c 1
 579 333 553 344 500 344 c 1
547 519 m 1
 576 514 l 1
 572 528 566 535 552 539 c 1
 547 519 l 1
570 684 m 1
 590 646 678 644 700 576 c 1
 723 557 l 1
 711 547 l 1
 725 527 736 518 751 518 c 1
 723 591 l 1
 681 633 629 666 570 684 c 1
584 626 m 1
 606 616 l 1
 606 626 602 633 593 633 c 1
 584 626 l 1
647 619 m 1
 650 602 673 579 689 579 c 1
 689 595 l 1
 647 619 l 1
755 553 m 1
 755 454 768 330 830 330 c 1
 830 414 802 491 755 553 c 1
EndSplineSet
EndChar

StartChar: u1F30F
Encoding: 127759 127759 58
Width: 920
VWidth: 0
Flags: MW
LayerCount: 2
Fore
SplineSet
70 330 m 0
 70 545 245 720 460 720 c 0
 675 720 850 545 850 330 c 0
 850 115 675 -60 460 -60 c 0
 245 -60 70 115 70 330 c 0
93 376 m 1
 137 380 152 395 165 414 c 1
 147 435 l 1
 147 449 147 461 155 480 c 1
 166 468 141 433 198 418 c 1
 198 372 200 331 214 292 c 1
 226 331 243 365 299 374 c 1
 307 327 l 1
 322 333 l 1
 322 276 330 243 361 226 c 1
 356 252 l 1
 331 279 l 1
 339 308 l 1
 369 276 l 1
 381 281 394 290 394 303 c 0
 394 325 375 325 375 339 c 0
 375 373 467 333 468 406 c 0
 468 429 460 450 445 470 c 1
 491 470 493 461 493 434 c 1
 509 439 l 1
 509 454 507 461 496 470 c 1
 535 490 543 501 543 548 c 1
 516 551 l 1
 536 606 564 562 582 608 c 1
 582 572 583 565 601 545 c 1
 599 580 l 1
 590 585 l 1
 590 609 604 590 604 636 c 1
 520 636 515 629 459 629 c 1
 443 650 l 1
 408 650 402 639 378 639 c 0
 341 639 330 650 328 676 c 1
 203 628 110 514 93 376 c 1
181 506 m 1
 182 519 199 558 226 559 c 1
 190 506 l 1
 181 506 l 1
220 278 m 1
 236 281 l 1
 226 307 l 1
 220 278 l 1
301 269 m 1
 350 175 368 161 494 161 c 1
 426 165 368 173 368 210 c 1
 301 269 l 1
389 342 m 1
 396 331 l 1
 408 345 l 1
 389 342 l 1
390 229 m 1
 390 203 398 192 435 192 c 1
 456 249 l 1
 442 262 l 1
 419 237 403 229 390 229 c 1
419 91 m 1
 443 32 l 1
 469 44 492 49 515 49 c 0
 531 49 552 45 562 28 c 1
 603 28 633 51 643 94 c 1
 596 135 627 126 599 160 c 1
 584 120 l 1
 556 132 l 1
 564 150 l 1
 502 150 487 105 419 91 c 1
455 180 m 1
 482 187 l 1
 459 217 l 1
 455 180 l 1
458 363 m 1
 468 355 l 1
 471 380 l 1
 458 363 l 1
460 334 m 1
 460 285 486 272 486 253 c 1
 502 262 l 1
 502 304 475 301 475 331 c 1
 460 334 l 1
460 700 m 1
 460 676 584 685 584 665 c 0
 584 630 667 632 667 595 c 0
 667 581 661 570 633 565 c 1
 663 568 671 582 671 599 c 0
 671 612 645 629 644 651 c 1
 590 682 527 700 460 700 c 1
510 430 m 1
 517 416 l 1
 566 447 l 1
 566 504 600 508 600 542 c 1
 599 523 585 504 560 504 c 1
 562 526 l 1
 544 554 l 1
 558 491 l 1
 558 460 558 461 510 430 c 1
529 214 m 1
 540 182 573 206 582 173 c 1
 603 169 l 1
 615 181 l 1
 644 165 l 1
 631 214 579 214 529 214 c 1
576 21 m 1
 577 11 l 1
 598 26 l 1
 576 21 l 1
EndSplineSet
EndChar

StartChar: u1F30C
Encoding: 127756 127756 59
Width: 1220
VWidth: 0
Flags: MW
LayerCount: 2
Fore
SplineSet
70 254 m 0
 70 496 312 660 551 660 c 0
 780 660 936 524 936 386 c 0
 936 259 801 173 677 173 c 0
 538 173 464 258 464 354 c 0
 464 366 466 376 471 388 c 1
 441 369 420 340 420 294 c 0
 420 199 530 85 728 85 c 0
 904 85 1116 213 1116 416 c 0
 1116 490 1091 555 1048 616 c 1
 1113 544 1150 462 1150 372 c 0
 1150 161 934 0 692 0 c 0
 437 0 292 154 292 294 c 0
 292 442 448 522 561 522 c 0
 694 522 769 436 769 354 c 0
 769 342 768 331 764 320 c 1
 796 342 808 367 808 401 c 0
 808 488 710 594 517 594 c 0
 332 594 95 454 95 211 c 0
 95 162 104 112 128 58 c 1
 92 117 70 183 70 254 c 0
171 247 m 0
 171 309 194 374 248 420 c 1
 224 378 213 329 213 285 c 0
 213 156 318 1 534 -60 c 1
 310 -53 171 85 171 247 c 0
702 720 m 1
 912 720 1046 590 1046 438 c 0
 1046 379 1022 323 979 285 c 1
 998 319 1008 362 1008 403 c 0
 1008 523 906 668 702 720 c 1
EndSplineSet
EndChar

StartChar: uni26A1
Encoding: 9889 9889 60
Width: 770
VWidth: 0
Flags: MW
LayerCount: 2
Fore
SplineSet
70 190 m 1
 330 660 l 1
 520 660 l 1
 280 340 l 1
 700 430 l 1
 320 -60 l 1
 480 280 l 1
 70 190 l 1
EndSplineSet
EndChar

StartChar: uni2604
Encoding: 9732 9732 61
Width: 880
VWidth: 0
Flags: MW
LayerCount: 2
Fore
SplineSet
70 720 m 1
 480 400 l 1
 340 620 l 1
 400 600 810 372 810 170 c 0
 810 95 752 -60 630 -60 c 0
 554 -60 576 -30 470 -30 c 0
 343 -30 240 210 140 450 c 1
 350 280 l 1
 70 720 l 1
360 145 m 0
 360 53 442 10 470 10 c 0
 583 10 571 -20 630 -20 c 0
 724 -20 770 115 770 170 c 0
 770 235 715 315 620 315 c 0
 550 315 564 235 465 235 c 0
 426 235 417 245 405 245 c 0
 388 245 360 206 360 145 c 0
EndSplineSet
EndChar
